<?xml version="1.0" encoding="iso-8859-1"?>
<!-- Generator: Adobe Illustrator 19.0.0, SVG Export Plug-In . SVG Version: 6.00 Build 0)  -->
<svg version="1.1" id="Layer_1" xmlns="http://www.w3.org/2000/svg"  x="0px" y="0px"
	 viewBox="0 0 512 512" style="enable-background:new 0 0 512 512;" xml:space="preserve">
<path style="fill:#F0A037;" d="M511.999,255.406c0.144,64.931-23.883,124.266-63.632,169.489
	c-8.583,9.771-17.909,18.886-27.869,27.247c-42.414,35.63-96.564,57.736-155.832,59.712c-2.676,0.089-5.374,0.133-8.072,0.144
	c-2.842,0.011-5.663-0.033-8.483-0.122c-59.157-1.788-113.296-23.661-155.788-59.046c-9.971-8.294-19.308-17.343-27.913-27.047
	c-39.949-45.045-64.265-104.269-64.409-169.2C-0.321,115.195,114.03,0.323,255.417,0.001
	C396.793-0.321,511.677,114.019,511.999,255.406z"/>
<path style="fill:#77D7ED;" d="M420.494,452.142c-39.893,33.509-90.168,55.06-145.329,59.146c-3.475,0.255-6.984,0.444-10.504,0.566
	c-2.676,0.089-5.374,0.133-8.072,0.144c-2.842,0.011-5.663-0.033-8.483-0.122c-4.219-0.133-8.405-0.355-12.569-0.688
	c-41.848-3.309-80.875-16.688-114.651-37.728c-10.004-6.218-19.553-13.124-28.568-20.63c26.448-27.291,59.657-48.01,96.93-59.49
	c4.83-1.488,9.726-2.82,14.678-3.986c8.616-2.032,17.41-3.575,26.37-4.597c5.874-0.688,11.803-1.133,17.809-1.355
	c2.687-0.111,5.385-0.155,8.105-0.167c2.831-0.011,5.651,0.033,8.449,0.144c19.808,0.666,38.983,3.853,57.203,9.249
	C359.76,403.854,393.569,424.617,420.494,452.142z"/>
<path style="fill:#4EADB7;" d="M230.302,384.757l-11.947,14.645c0,0-63.077,25.726-97.463,74.058
	c-10.004-6.218-19.553-13.124-28.568-20.63c29.878-30.822,68.373-53.273,111.608-63.476
	C212.548,387.322,221.342,385.778,230.302,384.757z"/>
<g>
	<path style="fill:#EFC881;" d="M187.235,242.861c0-17.945-16.76-32.492-37.435-32.492s-37.435,14.547-37.435,32.492
		s16.76,45.1,37.435,45.1S187.235,260.806,187.235,242.861z"/>
	<path style="fill:#EFC881;" d="M399.639,242.861c0-17.945-16.76-32.492-37.435-32.492c-20.675,0-37.435,14.547-37.435,32.492
		s16.76,45.1,37.435,45.1C382.879,287.961,399.639,260.806,399.639,242.861z"/>
</g>
<g>
	<path style="fill:#E0B775;" d="M385.074,248.223c0-10.589-6.462-19.174-14.434-19.174c-7.972,0-14.434,8.584-14.434,19.174
		c0,10.589,6.462,11.957,14.434,11.957C378.612,260.18,385.074,258.812,385.074,248.223z"/>
	<path style="fill:#E0B775;" d="M155.795,248.223c0-10.589-6.462-19.174-14.434-19.174s-14.434,8.584-14.434,19.174
		c0,10.589,6.462,11.957,14.434,11.957S155.795,258.812,155.795,248.223z"/>
	<path style="fill:#E0B775;" d="M321.865,392.629c-13.89,22.117-38.495,36.807-66.53,36.807c-27.747,0-52.118-14.379-66.086-36.096
		c4.83-1.488,9.726-2.82,14.678-3.986c8.616-2.032,17.41-3.575,26.37-4.597c5.874-0.688,11.803-1.133,17.809-1.355
		c2.687-0.111,5.385-0.155,8.105-0.167c2.831-0.011,5.651,0.033,8.449,0.144C284.47,384.046,303.645,387.233,321.865,392.629z"/>
</g>
<path style="fill:#F9D387;" d="M371.345,211.959V278.7c0,12.602-1.654,24.793-4.741,36.296c-1.133,4.23-2.443,8.35-3.964,12.369
	c-12.524,33.676-37.706,60.101-68.995,72.037c-0.733,0.289-1.466,0.566-2.198,0.822c-11.17,4.008-23.083,6.151-35.441,6.151
	c-12.369,0-24.283-2.143-35.441-6.151c-0.744-0.255-1.477-0.533-2.21-0.822c-23.239-8.86-43.091-25.715-56.915-47.61
	c-4.797-7.583-8.86-15.766-12.08-24.427c-1.521-4.019-2.831-8.139-3.953-12.369c-3.098-11.503-4.752-23.694-4.752-36.296v-66.741
	c0-40.215,16.799-76.079,43.047-99.473c19.775-17.643,44.923-28.202,72.303-28.202c31.844,0,60.678,14.29,81.552,37.406
	C358.432,144.785,371.345,176.707,371.345,211.959z"/>
<path style="fill:#EB305B;" d="M259.854,460.302l15.311,50.985c-3.475,0.255-6.984,0.444-10.504,0.566
	c-2.676,0.089-5.374,0.133-8.072,0.144c-2.842,0.011-5.663-0.033-8.483-0.122c-4.219-0.133-8.405-0.355-12.569-0.688l15.278-50.886
	l-10.548-15.8l-10.059-15.067l7.284-7.284c5.374,3.864,11.336,6.562,17.843,7.284c6.506-0.722,12.469-3.42,17.843-7.284l7.284,7.284
	l-10.059,15.067L259.854,460.302z"/>
<g>
	<path style="fill:#4EADB7;" d="M255.335,429.436l-41.77,41.77l-40.393-81.852l30.756-16.655c0,0,12.058,34.009,33.565,49.453
		C242.866,426.016,248.829,428.714,255.335,429.436z"/>
	<path style="fill:#4EADB7;" d="M337.498,389.354l-40.393,81.852l-41.77-41.77c6.506-0.722,12.469-3.42,17.843-7.284
		c21.507-15.444,33.565-49.453,33.565-49.453L337.498,389.354z"/>
</g>
<g>
	<path style="fill:#EFC881;" d="M161.097,309.145l-0.155-1.189c-1.619-12.394-8.703-23.084-18.896-28.517l-1.389-0.741
		c0,12.608,1.651,24.795,4.744,36.301c1.127,4.223,2.438,8.343,3.958,12.361c12.531,33.675,37.709,60.11,68.997,72.036
		c-6.144-27.8-20.859-50.567-39.985-62.658C169.108,330.881,162.624,320.835,161.097,309.145z"/>
	<path style="fill:#EFC881;" d="M351.062,307.957l-0.155,1.189c-1.527,11.689-8.011,21.737-17.276,27.595
		c-19.125,12.091-33.84,34.858-39.985,62.658c31.287-11.926,56.466-38.361,68.997-72.036c1.52-4.019,2.831-8.14,3.958-12.361
		c3.093-11.505,4.744-23.693,4.744-36.301l-1.389,0.741C359.764,284.872,352.68,295.562,351.062,307.957z"/>
</g>
<path style="fill:#68635B;" d="M370.641,229.047c0,0-27.225-46.944-84.961-46.944c-7.639,0-14.834-0.5-21.573-1.388
	c-0.633-0.078-1.266-0.167-1.899-0.255c-0.022-0.011-0.056-0.011-0.078-0.011c-1.554-0.222-3.076-0.455-4.574-0.722
	c-40.071-6.895-62.177-26.492-62.177-26.492l-54.727,58.724c-25.115-80.431,43.047-99.473,43.047-99.473
	c7.117-17.41,32.599-31.089,62.699-35.696c0.011-0.011,0.022-0.011,0.022-0.011c30.101-4.608,64.798-0.155,90.335,18.72
	C387.828,133.249,370.641,229.047,370.641,229.047z"/>
<g>
	<path style="fill:#56524B;" d="M257.556,179.727c-40.071-6.895-62.177-26.492-62.177-26.492l-54.727,58.724
		c-25.115-80.431,43.047-99.473,43.047-99.473c7.117-17.41,32.599-31.089,62.699-35.696c-1.099,0.322-38.728,11.725-33.254,40.171
		C218.328,143.941,236.038,174.475,257.556,179.727z"/>
	<path style="fill:#56524B;" d="M264.107,180.715c-0.633-0.078-1.266-0.167-1.899-0.255
		C262.896,180.504,263.529,180.593,264.107,180.715z"/>
</g>
<g>
	<path style="fill:#4D4D4D;" d="M320.205,245.043v22.512c0,4.213-3.408,7.62-7.62,7.62c-4.064,0-7.381-3.179-7.6-7.193
		c-0.01-0.139-0.01-0.289-0.01-0.427v-22.512c0-4.213,3.408-7.62,7.61-7.62c2.106,0,4.014,0.854,5.384,2.225
		c0.984,0.984,1.699,2.235,2.026,3.626C320.135,243.841,320.205,244.437,320.205,245.043z"/>
	<path style="fill:#4D4D4D;" d="M199.41,275.174L199.41,275.174c-4.206,0-7.617-3.41-7.617-7.617v-22.518
		c0-4.206,3.41-7.617,7.617-7.617l0,0c4.206,0,7.617,3.41,7.617,7.617v22.518C207.027,271.764,203.616,275.174,199.41,275.174z"/>
</g>
<g>
	<path style="fill:#68635B;" d="M331.095,217.437c0-10.22-8.285-18.506-18.506-18.506c-10.22,0-18.506,8.285-18.506,18.506l0,0
		C304.305,207.217,320.876,207.217,331.095,217.437L331.095,217.437z"/>
	<path style="fill:#68635B;" d="M217.915,217.437c0-10.22-8.285-18.506-18.506-18.506s-18.506,8.285-18.506,18.506l0,0
		C191.125,207.217,207.695,207.217,217.915,217.437L217.915,217.437z"/>
</g>
<g>
	<path style="fill:#666666;" d="M320.199,245.043v22.512c0,4.213-3.408,7.62-7.62,7.62c-4.064,0-7.381-3.179-7.6-7.193
		c8.524-8.763,12.845-18.11,15.01-24.707C320.131,243.841,320.199,244.437,320.199,245.043z"/>
	<path style="fill:#666666;" d="M207.02,245.043v22.512c0,4.213-3.408,7.62-7.62,7.62c-4.063,0-7.381-3.179-7.6-7.193
		c8.524-8.763,12.845-18.11,15.01-24.707C206.95,243.841,207.02,244.437,207.02,245.043z"/>
</g>
<path style="fill:#E0B775;" d="M274.089,298.676c0-0.567-0.114-1.121-0.331-1.658c-2.302-5.685-3.931-11.609-3.882-17.743
	c0.006-0.685,0.008-1.383,0.008-2.095c0-34.249-6.216-54.758-13.882-54.758c-7.667,0-13.882,20.51-13.882,54.758
	c0,0.712,0.002,1.41,0.008,2.095c0.049,6.133-1.581,12.058-3.882,17.743c-0.218,0.536-0.331,1.09-0.331,1.658
	c0,2.796,2.754,5.276,7.016,6.867c2.535,7.915,6.55,9.008,11.071,9.008c4.521,0,8.537-1.093,11.071-9.008
	C271.336,303.952,274.089,301.47,274.089,298.676z"/>
<path style="fill:#4D4D4D;" d="M297.417,332.599c-0.011,0.111-0.011,0.211-0.022,0.322c-0.044,0.633-0.111,1.266-0.211,1.888
	c-0.078,0.489-0.167,0.966-0.278,1.443c-0.078,0.344-0.167,0.688-0.255,1.033c-0.366,1.321-0.855,2.609-1.466,3.864
	c-1.943,4.064-5.063,7.728-9.071,10.77c-7.572,5.729-18.254,9.304-30.112,9.304c-11.858,0-22.539-3.575-30.112-9.304
	c-4.008-3.042-7.128-6.706-9.071-10.77c-0.611-1.255-1.099-2.543-1.466-3.864c-0.089-0.344-0.178-0.688-0.255-1.033
	c-0.111-0.477-0.2-0.955-0.278-1.443c-0.1-0.622-0.167-1.255-0.211-1.888c-0.011-0.111-0.011-0.211-0.022-0.322
	c1.455,0.289,2.931,0.566,4.441,0.822c11.159,1.932,23.705,3.009,36.973,3.009s25.815-1.077,36.973-3.009
	C294.486,333.165,295.962,332.888,297.417,332.599z"/>
<path style="fill:#F2F2F2;" d="M297.417,332.599c-0.011,0.111-0.011,0.211-0.022,0.322c-0.044,0.633-0.111,1.266-0.211,1.888
	c-0.078,0.489-0.167,0.966-0.278,1.443c-0.078,0.344-0.167,0.688-0.255,1.033c-0.366,1.321-0.855,2.609-1.466,3.864
	c-3.997,0.622-8.161,1.155-12.458,1.577c-8.449,0.844-17.421,1.288-26.725,1.288c-9.304,0-18.276-0.444-26.725-1.288
	c-4.297-0.422-8.461-0.955-12.458-1.577c-0.611-1.255-1.099-2.543-1.466-3.864c-0.089-0.344-0.178-0.688-0.255-1.033
	c-0.111-0.477-0.2-0.955-0.278-1.443c-0.1-0.622-0.167-1.255-0.211-1.888c-0.011-0.111-0.011-0.211-0.022-0.322
	c1.454,0.289,2.931,0.566,4.441,0.822c11.159,1.932,23.705,3.009,36.973,3.009c13.268,0,25.815-1.077,36.973-3.009
	C294.486,333.165,295.962,332.888,297.417,332.599z"/>
<path style="fill:#FFFFFF;" d="M292.976,333.421c-1.81,2.587-4.13,4.952-6.862,7.028c-1.066,0.811-2.198,1.577-3.386,2.276
	c-8.449,0.844-17.421,1.288-26.725,1.288c-9.304,0-18.276-0.444-26.725-1.288c-1.188-0.7-2.321-1.466-3.386-2.276
	c-2.731-2.076-5.052-4.441-6.862-7.028c11.159,1.932,23.705,3.009,36.973,3.009C269.271,336.429,281.817,335.352,292.976,333.421z"
	/>
<path style="fill:#EFC881;" d="M277.764,370.073c0-4.541-9.743,0.484-21.763,0.484c-12.02,0-21.763-5.024-21.763-0.484
	c0,4.54,9.743,8.222,21.763,8.222C268.021,378.295,277.764,374.614,277.764,370.073z"/>
<g>
</g>
<g>
</g>
<g>
</g>
<g>
</g>
<g>
</g>
<g>
</g>
<g>
</g>
<g>
</g>
<g>
</g>
<g>
</g>
<g>
</g>
<g>
</g>
<g>
</g>
<g>
</g>
<g>
</g>
</svg>
