<?xml version="1.0" encoding="iso-8859-1"?>
<!-- Generator: Adobe Illustrator 19.0.0, SVG Export Plug-In . SVG Version: 6.00 Build 0)  -->
<svg version="1.1" id="Layer_1" xmlns="http://www.w3.org/2000/svg"  x="0px" y="0px"
	 viewBox="0 0 512 512" style="enable-background:new 0 0 512 512;" xml:space="preserve">
<path style="fill:#55C6A1;" d="M511.999,255.406c0.144,64.931-23.883,124.266-63.632,169.489
	c-8.583,9.771-17.909,18.886-27.869,27.247c-42.414,35.63-96.564,57.736-155.832,59.713c-2.676,0.089-5.374,0.133-8.072,0.144
	c-2.842,0.011-5.663-0.033-8.483-0.122c-59.157-1.788-113.296-23.661-155.788-59.046c-9.971-8.294-19.308-17.343-27.913-27.047
	c-39.949-45.045-64.265-104.269-64.409-169.2C-0.321,115.195,114.03,0.323,255.417,0.001
	C396.793-0.321,511.677,114.019,511.999,255.406z"/>
<path style="fill:#518EBC;" d="M420.498,452.14c-41.115,34.542-93.255,56.37-150.392,59.468c-1.81,0.1-3.62,0.189-5.441,0.244
	c-2.676,0.089-5.374,0.133-8.072,0.144c-2.842,0.011-5.663-0.033-8.483-0.122c-1.799-0.056-3.597-0.133-5.396-0.222
	c-44.557-2.276-86.127-15.955-121.823-38.195c-10.004-6.218-19.553-13.124-28.568-20.63c29.878-30.822,68.373-53.273,111.608-63.476
	c8.616-2.032,17.41-3.575,26.37-4.597c4.108-0.477,8.239-0.844,12.413-1.088c1.788-0.111,3.586-0.2,5.396-0.266
	c2.687-0.111,5.385-0.155,8.105-0.167c2.831-0.011,5.651,0.033,8.449,0.144c1.821,0.067,3.631,0.144,5.441,0.255
	C328.92,387.011,381.815,412.592,420.498,452.14z"/>
<g>
	<path style="fill:#4783A8;" d="M230.304,384.759l-11.947,14.645c0,0-63.077,25.726-97.463,74.058
		c-10.004-6.218-19.553-13.124-28.568-20.63c29.878-30.822,68.373-53.273,111.608-63.477
		C212.55,387.324,221.344,385.78,230.304,384.759z"/>
	<path style="fill:#4783A8;" d="M270.107,372.01V511.61c-1.81,0.1-3.62,0.189-5.441,0.244c-2.676,0.089-5.374,0.133-8.072,0.144
		c-2.842,0.011-5.663-0.033-8.483-0.122c-1.799-0.056-3.597-0.133-5.396-0.222V372.01L270.107,372.01L270.107,372.01z"/>
	<polyline style="fill:#4783A8;" points="256.008,406.377 204.191,437.885 189.387,391.252 210.773,376.231 	"/>
	<polyline style="fill:#4783A8;" points="256.008,406.377 307.824,437.885 322.629,391.252 301.242,376.231 	"/>
</g>
<g>
	<circle style="fill:#68635B;" cx="256.415" cy="458.425" r="7.587"/>
	<circle style="fill:#68635B;" cx="256.415" cy="495.62" r="7.587"/>
</g>
<g>
	<path style="fill:#EFC881;" d="M187.236,242.861c0-17.945-16.76-32.492-37.435-32.492s-37.435,14.547-37.435,32.492
		s16.76,45.1,37.435,45.1S187.236,260.806,187.236,242.861z"/>
	<path style="fill:#EFC881;" d="M399.639,242.861c0-17.945-16.76-32.492-37.435-32.492c-20.675,0-37.435,14.547-37.435,32.492
		s16.76,45.1,37.435,45.1C382.879,287.961,399.639,260.806,399.639,242.861z"/>
</g>
<g>
	<path style="fill:#E0B775;" d="M385.074,248.223c0-10.589-6.462-19.174-14.434-19.174s-14.434,8.584-14.434,19.174
		s6.462,11.957,14.434,11.957S385.074,258.812,385.074,248.223z"/>
	<path style="fill:#E0B775;" d="M155.794,248.223c0-10.589-6.462-19.174-14.434-19.174c-7.972,0-14.434,8.584-14.434,19.174
		s6.462,11.957,14.434,11.957C149.332,260.18,155.794,258.812,155.794,248.223z"/>
</g>
<path style="fill:#F9D387;" d="M371.35,211.963v66.741c0,12.602-1.654,24.793-4.741,36.296c-1.133,4.23-2.443,8.35-3.964,12.369
	c-12.524,33.676-37.706,60.101-68.995,72.037c-0.733,0.289-1.466,0.566-2.198,0.822c-11.17,4.008-23.083,6.151-35.441,6.151
	c-12.369,0-24.282-2.143-35.441-6.151c-0.744-0.255-1.477-0.533-2.21-0.822c-23.239-8.86-43.091-25.715-56.915-47.61
	c-4.797-7.583-8.86-15.766-12.08-24.427c-1.521-4.019-2.831-8.139-3.953-12.369c-3.098-11.503-4.752-23.694-4.752-36.296v-66.741
	c0-40.215,16.799-76.079,43.047-99.473c19.775-17.643,44.923-28.202,72.303-28.202c27.369,0,52.518,10.559,72.292,28.202v0.011
	c3.231,2.865,6.329,5.94,9.26,9.193C358.437,144.79,371.35,176.711,371.35,211.963z"/>
<path style="fill:#EFC881;" d="M277.766,353.418c0-4.541-9.744,0.484-21.763,0.484c-12.019,0-21.763-5.024-21.763-0.484
	c0,4.541,9.744,8.222,21.763,8.222C268.021,361.64,277.766,357.959,277.766,353.418z"/>
<path style="fill:#D69D76;" d="M256.002,344.985c-11.398,0-22.797-2.422-33.745-7.265c-1.886-0.834-2.695-3.081-1.783-4.931l0,0
	c0.857-1.738,2.93-2.495,4.701-1.712c20.001,8.847,41.65,8.847,61.652,0c1.772-0.784,3.845-0.026,4.701,1.712l0,0
	c0.913,1.85,0.103,4.096-1.783,4.931C278.799,342.564,267.401,344.985,256.002,344.985z"/>
<g>
	<path style="fill:#EFC881;" d="M161.097,309.145l-0.155-1.189c-1.619-12.394-8.703-23.084-18.896-28.517l-1.389-0.741
		c0,12.608,1.651,24.795,4.744,36.301c1.127,4.223,2.438,8.343,3.958,12.361c12.531,33.675,37.709,60.11,68.997,72.036
		c-6.144-27.8-20.859-50.567-39.985-62.658C169.108,330.881,162.624,320.835,161.097,309.145z"/>
	<path style="fill:#EFC881;" d="M351.062,307.957l-0.155,1.189c-1.527,11.689-8.011,21.737-17.276,27.595
		c-19.125,12.091-33.84,34.858-39.985,62.658c31.287-11.926,56.466-38.361,68.997-72.036c1.52-4.019,2.831-8.14,3.958-12.361
		c3.093-11.505,4.744-23.693,4.744-36.301l-1.389,0.741C359.764,284.872,352.68,295.562,351.062,307.957z"/>
</g>
<path style="fill:#F2F2F2;" d="M354.651,343.646c0,0-0.078,0.888-0.289,2.509c-0.477,3.764-1.643,11.481-4.086,20.952
	c-1.643,6.418-3.875,13.624-6.873,20.974c-7.983,19.608-21.418,40.138-43.757,48.72l-5.896-21.251l-37.74,50.464l-37.751-50.464
	l-5.896,21.251c-22.339-8.583-35.774-29.112-43.757-48.72c-2.998-7.35-5.23-14.556-6.873-20.974
	c-2.443-9.471-3.609-17.188-4.086-20.952c-0.211-1.621-0.289-2.509-0.289-2.509c0.766,0.366,1.543,0.711,2.321,1.066
	c33.576,14.867,79.587,14.29,95.631-28.89c0.244-0.633,0.477-1.288,0.7-1.943c0.233,0.677,0.466,1.343,0.711,1.999
	c16.066,43.124,62.033,43.691,95.609,28.835C353.108,344.357,353.885,344.013,354.651,343.646z"/>
<path style="fill:#E6E6E6;" d="M354.363,346.156c-0.477,3.764-1.643,11.481-4.086,20.952
	c-33.953,11.858-78.144,13.102-94.265-23.605c-16.144,36.696-60.323,35.463-94.277,23.605c-2.443-9.471-3.609-17.188-4.086-20.952
	c0.688-0.466,1.366-0.955,2.032-1.443c33.576,14.867,79.587,14.29,95.631-28.89c0.255,0.311,0.489,0.633,0.722,0.955
	c0.222-0.3,0.444-0.6,0.688-0.899c16.066,43.124,62.033,43.691,95.609,28.835C352.997,345.201,353.674,345.689,354.363,346.156z"/>
<path style="fill:#F2F2F2;" d="M377.779,341.226c-6.207,4.097-13.901,8.061-22.406,11.403
	c-34.486,13.524-82.418,16.855-99.362-21.718c-11.17,25.393-35.752,32.621-61.089,30.745c-13.157-0.977-26.514-4.408-38.295-9.027
	c-8.505-3.342-16.199-7.306-22.406-11.403c20.929,0,31.944-15.5,49.076-29.312c7.395-5.951,15.933-11.592,26.892-15.533
	c16.677-5.996,28.857-3.742,37.162,0.455c3.62,1.832,6.562,4.375,8.683,7.35c2.287-3.175,5.496-5.885,9.46-7.761
	c8.283-3.931,20.197-5.84,36.329-0.044C338.185,309.46,347.834,341.226,377.779,341.226z"/>
<g>
	<path style="fill:#E6E6E6;" d="M219.371,348.82c0,0-3.742,7.161-24.449,12.835c-13.157-0.977-26.514-4.408-38.295-9.027
		c-8.505-3.342-16.199-7.306-22.406-11.403c20.929,0,31.944-15.5,49.076-29.312h0.022c0,0-2.609,11.003-14.279,21.362l25.149-14.789
		c-0.233,0.577-7.561,17.765-20.119,21.929l36.418-9.36c0,0-5.363,15.444-29.612,18.509
		C180.876,349.564,201.606,355.482,219.371,348.82z"/>
	<path style="fill:#E6E6E6;" d="M292.629,348.82c0,0,3.742,7.161,24.449,12.835c13.157-0.977,26.514-4.408,38.295-9.027
		c8.505-3.342,16.199-7.306,22.406-11.403c-20.929,0-31.944-15.5-49.076-29.312h-0.022c0,0,2.609,11.003,14.279,21.362
		l-25.149-14.789c0.233,0.577,7.561,17.765,20.119,21.929l-36.418-9.36c0,0,5.363,15.444,29.612,18.509
		C331.124,349.564,310.394,355.482,292.629,348.82z"/>
	<path style="fill:#E6E6E6;" d="M343.404,388.081c-7.983,19.608-21.418,40.138-43.757,48.72l-5.896-21.251l-37.74,50.464
		l-37.751-50.464l-5.896,21.251c-22.339-8.583-35.774-29.112-43.757-48.72l23.372,17.743l-6.662-22.206l23.317,23.317l-4.697-17.576
		l25.793,26.081v-18.498L256,428.763l26.27-31.822v18.498l25.804-26.081l-4.708,17.576l23.317-23.317l-6.662,22.206l23.372-17.743
		L343.404,388.081L343.404,388.081z"/>
</g>
<g>
	<path style="fill:#F2F2F2;" d="M141.36,229.051l-0.699-2.354v-14.734c0-40.215,16.799-76.079,43.047-99.473
		C193.556,186.293,141.36,229.051,141.36,229.051z"/>
	<path style="fill:#F2F2F2;" d="M371.35,211.963v14.701l-0.711,2.387c0,0-52.196-42.758-42.336-116.549
		c3.231,2.865,6.329,5.94,9.26,9.193C358.437,144.79,371.35,176.711,371.35,211.963z"/>
</g>
<g>
	<path style="fill:#4D4D4D;" d="M320.202,239.491v22.512c0,4.213-3.408,7.62-7.62,7.62c-4.064,0-7.381-3.179-7.6-7.193
		c-0.01-0.139-0.01-0.289-0.01-0.427v-22.512c0-4.213,3.408-7.62,7.61-7.62c2.106,0,4.014,0.854,5.384,2.225
		c0.984,0.984,1.699,2.235,2.026,3.626C320.132,238.289,320.202,238.885,320.202,239.491z"/>
	<path style="fill:#4D4D4D;" d="M199.406,269.622L199.406,269.622c-4.206,0-7.617-3.41-7.617-7.617v-22.518
		c0-4.206,3.41-7.617,7.617-7.617l0,0c4.206,0,7.617,3.41,7.617,7.617v22.518C207.023,266.212,203.612,269.622,199.406,269.622z"/>
</g>
<g>
	<path style="fill:#68635B;" d="M331.092,211.886c0-10.22-8.285-18.506-18.506-18.506s-18.506,8.285-18.506,18.506l0,0
		C304.302,201.665,320.872,201.665,331.092,211.886L331.092,211.886z"/>
	<path style="fill:#68635B;" d="M217.912,211.886c0-10.22-8.285-18.506-18.506-18.506c-10.22,0-18.506,8.285-18.506,18.506l0,0
		C191.121,201.665,207.692,201.665,217.912,211.886L217.912,211.886z"/>
</g>
<g>
	<path style="fill:#666666;" d="M320.196,239.491v22.512c0,4.213-3.408,7.62-7.62,7.62c-4.063,0-7.381-3.179-7.6-7.193
		c8.524-8.763,12.845-18.11,15.01-24.707C320.127,238.289,320.196,238.885,320.196,239.491z"/>
	<path style="fill:#666666;" d="M207.016,239.491v22.512c0,4.213-3.408,7.62-7.62,7.62c-4.063,0-7.381-3.179-7.6-7.193
		c8.524-8.763,12.845-18.11,15.01-24.707C206.947,238.289,207.016,238.885,207.016,239.491z"/>
</g>
<path style="fill:#E0B775;" d="M274.086,293.124c0-0.567-0.114-1.121-0.331-1.658c-2.302-5.685-3.93-11.609-3.882-17.743
	c0.006-0.685,0.008-1.383,0.008-2.095c0-34.249-6.216-54.758-13.882-54.758s-13.882,20.51-13.882,54.758
	c0,0.712,0.002,1.41,0.008,2.095c0.049,6.133-1.581,12.058-3.882,17.743c-0.218,0.536-0.331,1.09-0.331,1.658
	c0,2.796,2.754,5.276,7.016,6.867c2.535,7.915,6.55,9.008,11.071,9.008s8.537-1.093,11.071-9.008
	C271.332,298.4,274.086,295.92,274.086,293.124z"/>
<g>
</g>
<g>
</g>
<g>
</g>
<g>
</g>
<g>
</g>
<g>
</g>
<g>
</g>
<g>
</g>
<g>
</g>
<g>
</g>
<g>
</g>
<g>
</g>
<g>
</g>
<g>
</g>
<g>
</g>
</svg>
